<?xml version="1.0" encoding="UTF-8"?>
<svg width="64" height="64" version="1.1" viewBox="0 0 3.84 3.84" xmlns="http://www.w3.org/2000/svg">
 <path d="m2.6837 0.13809c-0.14059-0.14059-0.36853-0.14058-0.50912 7.46e-6l-2.0365 2.0365c-0.14059 0.14059-0.14059 0.36853-7.43e-6 0.50912l0.54635 0.54635c-0.020142-0.021147-0.01991-0.054548 7.5292e-4 -0.075211 0.020988-0.020988 0.055083-0.020896 0.076174 1.937e-4 0.02109 0.02109 0.021182 0.055185 1.9375e-4 0.076174-0.020664 0.020664-0.054064 0.020895-0.075211 7.529e-4l0.46998 0.46998c0.14059 0.14059 0.36853 0.14058 0.50912-7.4e-6l2.0365-2.0365c0.14059-0.14059 0.14059-0.36853 7.3e-6 -0.50912l-0.47093-0.47093c0.02109 0.02109 0.02117 0.055198 1.867e-4 0.076181-0.020983 0.020983-0.055083 0.020896-0.076173-1.9445e-4 -0.02109-0.02109-0.021177-0.05519-1.937e-4 -0.076174 0.020984-0.020984 0.055091-0.020904 0.076181 1.8668e-4zm0.35732 0.73729c0.02109 0.02109 0.02117 0.055198 1.867e-4 0.076181-0.020983 0.020983-0.055083 0.020896-0.076172-1.9374e-4 -0.02109-0.02109-0.021177-0.05519-1.937e-4 -0.076174 0.020984-0.020984 0.055091-0.020904 0.076181 1.8668e-4zm-0.18996 0.18996c0.02109 0.02109 0.021177 0.055191 1.945e-4 0.076173-0.020988 0.020988-0.055091 0.020904-0.076181-1.867e-4 -0.02109-0.02109-0.021175-0.055192-1.867e-4 -0.076181 0.020982-0.020982 0.055083-0.020896 0.076173 1.944e-4zm-0.18999 0.18999c0.02109 0.02109 0.021168 0.0552 1.867e-4 0.076181-0.020982 0.020982-0.055083 0.020896-0.076173-1.945e-4 -0.02109-0.02109-0.021176-0.055192-1.944e-4 -0.076173 0.020982-0.020982 0.055091-0.020904 0.07618 1.86e-4zm-0.18996 0.18996c0.02109 0.02109 0.021176 0.055192 1.937e-4 0.076174-0.020988 0.020988-0.055091 0.020904-0.076181-1.867e-4 -0.02109-0.02109-0.021175-0.055193-1.866e-4 -0.076181 0.020982-0.020982 0.055083-0.020896 0.076174 1.938e-4zm-0.18996 0.18996c0.02109 0.02109 0.021176 0.055192 1.944e-4 0.076173-0.020982 0.020982-0.055091 0.020904-0.076181-1.866e-4 -0.02109-0.02109-0.021168-0.0552-1.867e-4 -0.076181 0.020982-0.020982 0.055083-0.020896 0.076173 1.945e-4zm-0.18998 0.18998c0.02109 0.02109 0.021167 0.0552 1.789e-4 0.076189-0.020982 0.020982-0.055083 0.020896-0.076173-1.944e-4 -0.02109-0.02109-0.021176-0.055192-1.938e-4 -0.076172 0.020988-0.020988 0.055098-0.020911 0.076188 1.782e-4zm-0.18996 0.18996c0.02109 0.02109 0.021176 0.055192 1.944e-4 0.076173-0.020982 0.020982-0.055083 0.020896-0.076173-1.944e-4 -0.02109-0.02109-0.021176-0.055192-1.938e-4 -0.076172 0.020982-0.020982 0.055083-0.020896 0.076172 1.938e-4zm-0.18999 0.18999c0.02109 0.02109 0.021176 0.055192 1.938e-4 0.076174-0.020982 0.020982-0.055091 0.020904-0.076181-1.867e-4 -0.02109-0.02109-0.021168-0.0552-1.867e-4 -0.076181 0.020982-0.020982 0.055083-0.020896 0.076174 1.937e-4zm-0.18995 0.18995c0.02109 0.02109 0.021168 0.0552 1.867e-4 0.076181-0.020988 0.020988-0.055091 0.020904-0.076181-1.867e-4 -0.02109-0.02109-0.021175-0.055192-1.867e-4 -0.076181 0.020982-0.020982 0.055091-0.020904 0.076181 1.867e-4zm-0.18999 0.18999c0.02109 0.02109 0.021176 0.055192 1.943e-4 0.076173-0.020982 0.020982-0.055091 0.020904-0.076181-1.865e-4 -0.02109-0.02109-0.021168-0.055199-1.866e-4 -0.076181 0.020982-0.020982 0.055083-0.020896 0.076173 1.942e-4zm-0.18995 0.18995c0.02109 0.02109 0.021175 0.055193 1.865e-4 0.076181-0.020982 0.020982-0.055091 0.020904-0.076181-1.865e-4 -0.02109-0.02109-0.021168-0.055199-1.865e-4 -0.076181 0.020988-0.020988 0.055091-0.020904 0.076181 1.864e-4zm-0.18999 0.18999c0.02109 0.02109 0.021168 0.055199 1.8654e-4 0.076181-0.020982 0.020982-0.055083 0.020896-0.076174-1.937e-4 -0.02109-0.02109-0.021176-0.055192-1.9375e-4 -0.076174 0.020982-0.020982 0.055091-0.020904 0.076181 1.865e-4z" fill="#cf354f"/>
 <path d="m0.40954 2.3628c-0.006535 0.00589-0.010709 0.011659-0.012178 0.017156-0.015704 0.058606 0.22744 0.30175 0.28605 0.28605 0.058605-0.015703 0.14756-0.3478 0.10466-0.3907-0.03888-0.03888-0.31535 0.030524-0.37852 0.087504zm0.44075-0.44075c-0.006536 0.0059-0.010791 0.011741-0.01226 0.017239-0.015703 0.058605 0.22744 0.30175 0.28605 0.28605s0.14756-0.3478 0.10466-0.3907c-0.03888-0.03888-0.31527 0.030441-0.37844 0.087422zm0.44067-0.44067c-0.00654 0.0059-0.010709 0.011659-0.012178 0.017156-0.015703 0.058605 0.22744 0.30175 0.28605 0.28605 0.058605-0.015704 0.14756-0.3478 0.10466-0.3907-0.03888-0.03888-0.31535 0.030523-0.37852 0.087504zm0.44067-0.44067c-0.00654 0.0059-0.010709 0.011659-0.012178 0.017156-0.015703 0.058605 0.22744 0.30175 0.28605 0.28605 0.058605-0.015703 0.14756-0.3478 0.10466-0.3907-0.03888-0.03888-0.31535 0.030524-0.37852 0.087504zm0.44075-0.44075c-0.00654 0.005895-0.010791 0.011741-0.012261 0.017238-0.015703 0.058605 0.22744 0.30175 0.28605 0.28605 0.058605-0.015703 0.14764-0.34789 0.10474-0.39079-0.03888-0.03888-0.31535 0.030524-0.37852 0.087504zm-0.79574 2.3491c-0.056978 0.063173-0.12647 0.33956-0.087587 0.37844 0.042901 0.042901 0.37508-0.046135 0.39079-0.10474 0.015703-0.058605-0.22744-0.30175-0.28605-0.28605-0.00549 0.00148-0.011258 0.00581-0.017154 0.012346zm0.44075-0.44075c-0.056979 0.063173-0.12647 0.33956-0.087587 0.37844 0.042901 0.042901 0.375-0.046053 0.3907-0.10466 0.015703-0.058605-0.22744-0.30175-0.28605-0.28605-0.00549 0.00148-0.011174 0.00573-0.017071 0.012263zm0.44067-0.44067c-0.056979 0.063173-0.12647 0.33956-0.087587 0.37844 0.042901 0.042901 0.375-0.046052 0.3907-0.10466 0.015703-0.058605-0.22744-0.30175-0.28605-0.28605-0.00549 0.00148-0.011174 0.00573-0.017071 0.012263zm0.44067-0.44067c-0.056979 0.063173-0.12638 0.33948-0.087504 0.37836 0.042901 0.042901 0.375-0.046052 0.3907-0.10466 0.015703-0.058605-0.22744-0.30175-0.28605-0.28605-0.00549 0.00148-0.011257 0.00581-0.017154 0.012345zm0.44075-0.44075c-0.056979 0.063173-0.12647 0.33956-0.087587 0.37844 0.042901 0.042901 0.375-0.046052 0.3907-0.10466 0.015704-0.058606-0.22744-0.30175-0.28605-0.28605-0.00549 0.00148-0.011174 0.00573-0.017071 0.012263z" fill="#f2f2f2" stroke-width=".0021509"/>
</svg>
